ply
format ascii 1.0
comment synthetic educational dataset
comment deterministic_seed 41729
comment coordinate_unit fictional_unit
element vertex 1018
property float x
property float y
property float z
property uchar red
property uchar green
property uchar blue
end_header
-6.003 -0.558 -2.102 114 213 207
-5.988 0.555 -2.101 114 213 207
-6.007 -0.642 -1.846 114 213 207
-5.993 0.639 -1.834 114 213 207
-5.986 -0.695 -1.583 114 213 207
-5.99 0.702 -1.586 114 213 207
-5.995 -0.734 -1.32 114 213 207
-6.012 0.738 -1.309 114 213 207
-5.993 -0.783 -1.042 114 213 207
-5.994 0.775 -1.059 114 213 207
-5.991 -0.806 -0.777 114 213 207
-5.994 0.804 -0.777 114 213 207
-5.998 -0.81 -0.52 114 213 207
-6.006 0.826 -0.52 114 213 207
-5.988 -0.831 -0.27 114 213 207
-5.989 0.822 -0.271 114 213 207
-5.997 -0.834 0.003 114 213 207
-5.991 0.819 -0.007 114 213 207
-5.996 -0.822 0.26 114 213 207
-5.999 0.819 0.257 114 213 207
-5.993 -0.803 0.525 114 213 207
-6.003 0.801 0.514 114 213 207
-5.994 -0.775 0.796 114 213 207
-5.994 0.778 0.794 114 213 207
-6.005 -0.736 1.04 114 213 207
-6.004 0.751 1.046 114 213 207
-5.998 -0.697 1.308 114 213 207
-6.002 0.694 1.318 114 213 207
-5.989 -0.648 1.582 114 213 207
-6.005 0.644 1.584 114 213 207
-6.014 -0.577 1.833 114 213 207
-5.993 0.574 1.849 114 213 207
-6.006 -0.474 2.096 114 213 207
-5.988 0.479 2.112 114 213 207
-5.61 -0.809 -2.098 114 213 207
-5.608 0.806 -2.1 114 213 207
-5.605 -0.92 -1.845 114 213 207
-5.587 0.923 -1.829 114 213 207
-5.601 -0.999 -1.564 114 213 207
-5.588 1.002 -1.585 114 213 207
-5.611 -1.072 -1.303 114 213 207
-5.598 1.066 -1.324 114 213 207
-5.605 -1.112 -1.06 114 213 207
-5.599 1.125 -1.04 114 213 207
-5.608 -1.152 -0.797 114 213 207
-5.613 1.152 -0.782 114 213 207
-5.594 -1.183 -0.516 114 213 207
-5.611 1.174 -0.528 114 213 207
-5.587 -1.185 -0.257 114 213 207
-5.598 1.179 -0.274 114 213 207
-5.593 -1.188 0.01 114 213 207
-5.607 1.19 0.002 114 213 207
-5.597 -1.179 0.264 114 213 207
-5.606 1.184 0.269 114 213 207
-5.605 -1.144 0.529 114 213 207
-5.606 1.159 0.535 114 213 207
-5.611 -1.123 0.799 114 213 207
-5.604 1.115 0.792 114 213 207
-5.594 -1.078 1.049 114 213 207
-5.598 1.067 1.054 114 213 207
-5.614 -1.007 1.323 114 213 207
-5.592 1 1.318 114 213 207
-5.596 -0.918 1.584 114 213 207
-5.6 0.919 1.575 114 213 207
-5.587 -0.818 1.828 114 213 207
-5.611 0.818 1.832 114 213 207
-5.59 -0.675 2.103 114 213 207
-5.597 0.679 2.102 114 213 207
-5.193 -0.988 -2.093 114 213 207
-5.191 0.988 -2.11 114 213 207
-5.198 -1.126 -1.848 114 213 207
-5.203 1.114 -1.837 114 213 207
-5.208 -1.227 -1.581 114 213 207
-5.203 1.22 -1.586 114 213 207
-5.206 -1.306 -1.318 114 213 207
-5.198 1.303 -1.308 114 213 207
-5.21 -1.348 -1.055 114 213 207
-5.203 1.366 -1.039 114 213 207
-5.198 -1.405 -0.793 114 213 207
-5.194 1.401 -0.783 114 213 207
-5.201 -1.429 -0.52 114 213 207
-5.199 1.434 -0.535 114 213 207
-5.209 -1.441 -0.256 114 213 207
-5.202 1.436 -0.271 114 213 207
-5.191 -1.447 0.001 114 213 207
-5.202 1.445 -0.003 114 213 207
-5.186 -1.434 0.264 114 213 207
-5.191 1.424 0.273 114 213 207
-5.208 -1.403 0.518 114 213 207
-5.209 1.412 0.524 114 213 207
-5.201 -1.362 0.798 114 213 207
-5.198 1.371 0.787 114 213 207
-5.211 -1.296 1.059 114 213 207
-5.19 1.309 1.06 114 213 207
-5.191 -1.232 1.307 114 213 207
-5.201 1.232 1.304 114 213 207
-5.201 -1.134 1.57 114 213 207
-5.208 1.122 1.58 114 213 207
-5.2 -1 1.838 114 213 207
-5.207 0.994 1.83 114 213 207
-5.209 -0.817 2.096 114 213 207
-5.187 0.824 2.108 114 213 207
-4.788 -1.129 -2.096 114 213 207
-4.799 1.116 -2.106 114 213 207
-4.794 -1.277 -1.838 114 213 207
-4.797 1.267 -1.835 114 213 207
-4.804 -1.382 -1.587 114 213 207
-4.791 1.397 -1.585 114 213 207
-4.813 -1.472 -1.324 114 213 207
-4.809 1.47 -1.321 114 213 207
-4.798 -1.554 -1.052 114 213 207
-4.806 1.558 -1.06 114 213 207
-4.788 -1.605 -0.787 114 213 207
-4.812 1.594 -0.783 114 213 207
-4.788 -1.641 -0.524 114 213 207
-4.797 1.626 -0.537 114 213 207
-4.809 -1.655 -0.259 114 213 207
-4.8 1.648 -0.266 114 213 207
-4.807 -1.644 -0.004 114 213 207
-4.793 1.654 -0.009 114 213 207
-4.804 -1.642 0.265 114 213 207
-4.804 1.641 0.266 114 213 207
-4.803 -1.598 0.519 114 213 207
-4.809 1.609 0.525 114 213 207
-4.808 -1.546 0.797 114 213 207
-4.802 1.557 0.784 114 213 207
-4.804 -1.495 1.059 114 213 207
-4.793 1.489 1.053 114 213 207
-4.798 -1.389 1.323 114 213 207
-4.791 1.408 1.322 114 213 207
-4.809 -1.282 1.571 114 213 207
-4.811 1.285 1.565 114 213 207
-4.796 -1.137 1.827 114 213 207
-4.8 1.139 1.849 114 213 207
-4.812 -0.946 2.101 114 213 207
-4.812 0.941 2.111 114 213 207
-4.396 -1.242 -2.098 114 213 207
-4.401 1.232 -2.105 114 213 207
-4.392 -1.411 -1.837 114 213 207
-4.399 1.406 -1.832 114 213 207
-4.393 -1.539 -1.565 114 213 207
-4.388 1.539 -1.586 114 213 207
-4.388 -1.623 -1.31 114 213 207
-4.391 1.64 -1.324 114 213 207
-4.413 -1.704 -1.041 114 213 207
-4.404 1.708 -1.06 114 213 207
-4.41 -1.77 -0.795 114 213 207
-4.41 1.761 -0.781 114 213 207
-4.402 -1.796 -0.532 114 213 207
-4.413 1.801 -0.535 114 213 207
-4.4 -1.813 -0.263 114 213 207
-4.398 1.813 -0.258 114 213 207
-4.388 -1.823 0.004 114 213 207
-4.399 1.808 0.005 114 213 207
-4.397 -1.792 0.253 114 213 207
-4.408 1.807 0.273 114 213 207
-4.409 -1.773 0.521 114 213 207
-4.404 1.769 0.514 114 213 207
-4.408 -1.718 0.785 114 213 207
-4.387 1.707 0.78 114 213 207
-4.392 -1.639 1.039 114 213 207
-4.397 1.628 1.05 114 213 207
-4.406 -1.55 1.302 114 213 207
-4.41 1.538 1.309 114 213 207
-4.403 -1.421 1.584 114 213 207
-4.403 1.419 1.577 114 213 207
-4.407 -1.25 1.84 114 213 207
-4.394 1.249 1.843 114 213 207
-4.409 -1.031 2.101 114 213 207
-4.399 1.026 2.094 114 213 207
-4.005 -1.323 -2.103 114 213 207
-3.986 1.324 -2.108 114 213 207
-4.004 -1.502 -1.833 114 213 207
-4.004 1.503 -1.839 114 213 207
-3.995 -1.646 -1.586 114 213 207
-3.99 1.648 -1.574 114 213 207
-4.008 -1.747 -1.322 114 213 207
-4.011 1.756 -1.323 114 213 207
-4.01 -1.837 -1.04 114 213 207
-4.009 1.839 -1.058 114 213 207
-4.001 -1.893 -0.797 114 213 207
-3.992 1.89 -0.787 114 213 207
-3.995 -1.925 -0.521 114 213 207
-3.994 1.931 -0.519 114 213 207
-3.998 -1.954 -0.258 114 213 207
-4.012 1.956 -0.265 114 213 207
-4.007 -1.957 -0.002 114 213 207
-4.011 1.953 0.012 114 213 207
-3.987 -1.928 0.252 114 213 207
-3.99 1.93 0.264 114 213 207
-3.987 -1.907 0.524 114 213 207
-3.997 1.905 0.524 114 213 207
-4.002 -1.853 0.793 114 213 207
-3.996 1.852 0.797 114 213 207
-3.996 -1.768 1.045 114 213 207
-3.989 1.766 1.056 114 213 207
-4.014 -1.657 1.31 114 213 207
-4 1.656 1.32 114 213 207
-4 -1.523 1.582 114 213 207
-4.002 1.514 1.569 114 213 207
-3.996 -1.345 1.829 114 213 207
-3.992 1.345 1.826 114 213 207
-3.992 -1.12 2.099 114 213 207
-4.014 1.119 2.093 114 213 207
-3.604 -1.418 -2.105 114 213 207
-3.604 1.418 -2.104 114 213 207
-3.6 -1.611 -1.844 114 213 207
-3.587 1.595 -1.844 114 213 207
-3.588 -1.759 -1.585 114 213 207
-3.586 1.757 -1.578 114 213 207
-3.588 -1.871 -1.316 114 213 207
-3.6 1.866 -1.316 114 213 207
-3.599 -1.948 -1.042 114 213 207
-3.61 1.952 -1.054 114 213 207
-3.61 -2.005 -0.791 114 213 207
-3.597 2.021 -0.787 114 213 207
-3.597 -2.051 -0.515 114 213 207
-3.613 2.044 -0.517 114 213 207
-3.609 -2.081 -0.259 114 213 207
-3.588 2.077 -0.272 114 213 207
-3.59 -2.081 -0.009 114 213 207
-3.589 2.078 0.003 114 213 207
-3.592 -2.063 0.274 114 213 207
-3.612 2.045 0.257 114 213 207
-3.592 -2.013 0.522 114 213 207
-3.605 2.013 0.515 114 213 207
-3.614 -1.961 0.796 114 213 207
-3.59 1.958 0.778 114 213 207
-3.59 -1.87 1.041 114 213 207
-3.59 1.861 1.055 114 213 207
-3.595 -1.753 1.305 114 213 207
-3.612 1.761 1.323 114 213 207
-3.614 -1.612 1.586 114 213 207
-3.598 1.615 1.572 114 213 207
-3.605 -1.439 1.844 114 213 207
-3.588 1.433 1.845 114 213 207
-3.595 -1.174 2.103 114 213 207
-3.61 1.177 2.107 114 213 207
-3.202 -1.485 -2.108 114 213 207
-3.203 1.477 -2.09 114 213 207
-3.203 -1.671 -1.831 114 213 207
-3.209 1.688 -1.834 114 213 207
-3.187 -1.829 -1.581 114 213 207
-3.202 1.824 -1.579 114 213 207
-3.205 -1.961 -1.301 114 213 207
-3.191 1.953 -1.312 114 213 207
-3.188 -2.041 -1.05 114 213 207
-3.202 2.037 -1.051 114 213 207
-3.188 -2.113 -0.778 114 213 207
-3.205 2.113 -0.776 114 213 207
-3.195 -2.151 -0.52 114 213 207
-3.205 2.159 -0.531 114 213 207
-3.205 -2.165 -0.252 114 213 207
-3.211 2.165 -0.259 114 213 207
-3.206 -2.176 0.001 114 213 207
-3.208 2.174 0.003 114 213 207
-3.206 -2.152 0.274 114 213 207
-3.195 2.153 0.271 114 213 207
-3.197 -2.123 0.526 114 213 207
-3.213 2.122 0.531 114 213 207
-3.199 -2.045 0.776 114 213 207
-3.204 2.057 0.796 114 213 207
-3.196 -1.957 1.05 114 213 207
-3.19 1.963 1.062 114 213 207
-3.203 -1.848 1.306 114 213 207
-3.205 1.839 1.302 114 213 207
-3.189 -1.696 1.582 114 213 207
-3.2 1.694 1.564 114 213 207
-3.192 -1.502 1.841 114 213 207
-3.208 1.505 1.835 114 213 207
-3.202 -1.246 2.104 114 213 207
-3.2 1.245 2.108 114 213 207
-2.789 -1.54 -2.104 114 213 207
-2.81 1.529 -2.099 114 213 207
-2.794 -1.741 -1.839 114 213 207
-2.803 1.751 -1.83 114 213 207
-2.795 -1.898 -1.58 114 213 207
-2.798 1.898 -1.57 114 213 207
-2.803 -2.026 -1.303 114 213 207
-2.812 2.035 -1.31 114 213 207
-2.804 -2.12 -1.046 114 213 207
-2.789 2.117 -1.043 114 213 207
-2.812 -2.196 -0.782 114 213 207
-2.809 2.182 -0.784 114 213 207
-2.811 -2.233 -0.527 114 213 207
-2.788 2.244 -0.514 114 213 207
-2.798 -2.267 -0.252 114 213 207
-2.793 2.25 -0.269 114 213 207
-2.803 -2.265 0.01 114 213 207
-2.809 2.265 -0.01 114 213 207
-2.814 -2.238 0.274 114 213 207
-2.787 2.236 0.255 114 213 207
-2.811 -2.19 0.536 114 213 207
-2.787 2.189 0.521 114 213 207
-2.786 -2.135 0.794 114 213 207
-2.791 2.124 0.793 114 213 207
-2.799 -2.038 1.054 114 213 207
-2.788 2.046 1.06 114 213 207
-2.804 -1.923 1.307 114 213 207
-2.813 1.915 1.302 114 213 207
-2.796 -1.766 1.582 114 213 207
-2.789 1.77 1.57 114 213 207
-2.81 -1.556 1.842 114 213 207
-2.788 1.56 1.839 114 213 207
-2.801 -1.282 2.11 114 213 207
-2.793 1.293 2.094 114 213 207
-2.414 -1.579 -2.103 114 213 207
-2.39 1.583 -2.094 114 213 207
-2.406 -1.798 -1.833 114 213 207
-2.406 1.81 -1.849 114 213 207
-2.407 -1.971 -1.569 114 213 207
-2.391 1.956 -1.566 114 213 207
-2.401 -2.093 -1.311 114 213 207
-2.405 2.095 -1.32 114 213 207
-2.409 -2.184 -1.057 114 213 207
-2.389 2.188 -1.052 114 213 207
-2.396 -2.257 -0.799 114 213 207
-2.396 2.252 -0.781 114 213 207
-2.403 -2.301 -0.537 114 213 207
-2.394 2.301 -0.527 114 213 207
-2.396 -2.332 -0.261 114 213 207
-2.392 2.337 -0.272 114 213 207
-2.401 -2.338 0 114 213 207
-2.392 2.329 0.002 114 213 207
-2.388 -2.308 0.253 114 213 207
-2.403 2.305 0.265 114 213 207
-2.397 -2.261 0.527 114 213 207
-2.399 2.262 0.517 114 213 207
-2.395 -2.205 0.784 114 213 207
-2.412 2.188 0.786 114 213 207
-2.405 -2.111 1.059 114 213 207
-2.407 2.105 1.054 114 213 207
-2.39 -1.984 1.315 114 213 207
-2.408 1.969 1.321 114 213 207
-2.404 -1.82 1.564 114 213 207
-2.395 1.816 1.575 114 213 207
-2.403 -1.615 1.835 114 213 207
-2.407 1.615 1.849 114 213 207
-2.397 -1.324 2.092 114 213 207
-2.395 1.331 2.101 114 213 207
-2.007 -1.617 -2.104 114 213 207
-2.012 1.619 -2.099 114 213 207
-2.011 -1.85 -1.842 114 213 207
-2.005 1.855 -1.827 114 213 207
-2.003 -2.019 -1.568 114 213 207
-1.999 2.005 -1.569 114 213 207
-1.995 -2.147 -1.305 114 213 207
-2.001 2.141 -1.312 114 213 207
-2.013 -2.245 -1.06 114 213 207
-2.012 2.251 -1.049 114 213 207
-2.007 -2.32 -0.784 114 213 207
-1.996 2.31 -0.799 114 213 207
-1.993 -2.372 -0.519 114 213 207
-1.996 2.357 -0.516 114 213 207
-2.01 -2.382 -0.256 114 213 207
-2.005 2.392 -0.268 114 213 207
-1.995 -2.387 -0.011 114 213 207
-1.99 2.386 0.007 114 213 207
-2.011 -2.377 0.262 114 213 207
-1.992 2.367 0.265 114 213 207
-1.99 -2.324 0.524 114 213 207
-2.013 2.315 0.531 114 213 207
-1.996 -2.262 0.793 114 213 207
-2.001 2.26 0.78 114 213 207
-2.002 -2.152 1.054 114 213 207
-1.991 2.153 1.058 114 213 207
-2.005 -2.025 1.316 114 213 207
-1.996 2.031 1.312 114 213 207
-1.999 -1.86 1.566 114 213 207
-2.002 1.857 1.587 114 213 207
-2.006 -1.638 1.828 114 213 207
-1.996 1.648 1.844 114 213 207
-2.007 -1.357 2.105 114 213 207
-2.008 1.352 2.096 114 213 207
-1.593 -1.661 -2.11 114 213 207
-1.599 1.66 -2.098 114 213 207
-1.588 -1.879 -1.849 114 213 207
-1.59 1.873 -1.848 114 213 207
-1.591 -2.055 -1.571 114 213 207
-1.613 2.055 -1.579 114 213 207
-1.59 -2.179 -1.324 114 213 207
-1.606 2.188 -1.31 114 213 207
-1.603 -2.284 -1.054 114 213 207
-1.594 2.281 -1.058 114 213 207
-1.597 -2.36 -0.799 114 213 207
-1.588 2.372 -0.793 114 213 207
-1.612 -2.421 -0.529 114 213 207
-1.598 2.407 -0.527 114 213 207
-1.603 -2.433 -0.258 114 213 207
-1.613 2.438 -0.257 114 213 207
-1.588 -2.43 -0.004 114 213 207
-1.587 2.438 -0.011 114 213 207
-1.589 -2.415 0.267 114 213 207
-1.611 2.406 0.272 114 213 207
-1.607 -2.366 0.536 114 213 207
-1.589 2.365 0.537 114 213 207
-1.593 -2.291 0.784 114 213 207
-1.593 2.297 0.788 114 213 207
-1.599 -2.206 1.045 114 213 207
-1.601 2.196 1.041 114 213 207
-1.606 -2.064 1.303 114 213 207
-1.598 2.077 1.318 114 213 207
-1.613 -1.891 1.583 114 213 207
-1.59 1.903 1.578 114 213 207
-1.591 -1.671 1.843 114 213 207
-1.593 1.678 1.838 114 213 207
-1.595 -1.391 2.098 114 213 207
-1.612 1.388 2.089 114 213 207
-1.197 -1.691 -2.095 114 213 207
-1.202 1.692 -2.102 114 213 207
-1.198 -1.907 -1.849 114 213 207
-1.212 1.9 -1.838 114 213 207
-1.194 -2.091 -1.565 114 213 207
-1.202 2.091 -1.575 114 213 207
-1.211 -2.215 -1.311 114 213 207
-1.206 2.224 -1.314 114 213 207
-1.197 -2.325 -1.044 114 213 207
-1.196 2.322 -1.053 114 213 207
-1.205 -2.406 -0.777 114 213 207
-1.203 2.403 -0.787 114 213 207
-1.208 -2.439 -0.525 114 213 207
-1.206 2.444 -0.534 114 213 207
-1.2 -2.468 -0.252 114 213 207
-1.19 2.479 -0.262 114 213 207
-1.186 -2.467 -0.004 114 213 207
-1.2 2.471 -0.009 114 213 207
-1.196 -2.442 0.274 114 213 207
-1.201 2.443 0.263 114 213 207
-1.191 -2.408 0.527 114 213 207
-1.2 2.394 0.517 114 213 207
-1.214 -2.334 0.787 114 213 207
-1.198 2.335 0.78 114 213 207
-1.197 -2.229 1.051 114 213 207
-1.187 2.232 1.06 114 213 207
-1.2 -2.091 1.303 114 213 207
-1.207 2.097 1.31 114 213 207
-1.197 -1.921 1.577 114 213 207
-1.19 1.917 1.567 114 213 207
-1.198 -1.7 1.832 114 213 207
-1.193 1.705 1.827 114 213 207
-1.198 -1.403 2.096 114 213 207
-1.205 1.411 2.102 114 213 207
-0.804 -1.699 -2.109 114 213 207
-0.799 1.706 -2.108 114 213 207
-0.802 -1.934 -1.826 114 213 207
-0.792 1.92 -1.83 114 213 207
-0.813 -2.109 -1.575 114 213 207
-0.795 2.115 -1.565 114 213 207
-0.791 -2.241 -1.319 114 213 207
-0.802 2.237 -1.304 114 213 207
-0.793 -2.355 -1.04 114 213 207
-0.811 2.345 -1.049 114 213 207
-0.793 -2.429 -0.794 114 213 207
-0.8 2.432 -0.792 114 213 207
-0.799 -2.467 -0.534 114 213 207
-0.788 2.479 -0.528 114 213 207
-0.807 -2.502 -0.263 114 213 207
-0.796 2.489 -0.27 114 213 207
-0.807 -2.49 -0.005 114 213 207
-0.798 2.49 0 114 213 207
-0.796 -2.478 0.265 114 213 207
-0.791 2.48 0.26 114 213 207
-0.798 -2.42 0.524 114 213 207
-0.788 2.421 0.532 114 213 207
-0.81 -2.36 0.781 114 213 207
-0.787 2.347 0.777 114 213 207
-0.809 -2.255 1.058 114 213 207
-0.814 2.257 1.043 114 213 207
-0.802 -2.109 1.302 114 213 207
-0.796 2.124 1.305 114 213 207
-0.806 -1.943 1.575 114 213 207
-0.808 1.939 1.582 114 213 207
-0.808 -1.724 1.843 114 213 207
-0.797 1.729 1.832 114 213 207
-0.796 -1.42 2.092 114 213 207
-0.809 1.424 2.11 114 213 207
-0.392 -1.701 -2.11 114 213 207
-0.389 1.708 -2.099 114 213 207
-0.403 -1.94 -1.834 114 213 207
-0.407 1.95 -1.834 114 213 207
-0.407 -2.123 -1.572 114 213 207
-0.39 2.119 -1.57 114 213 207
-0.387 -2.255 -1.301 114 213 207
-0.396 2.261 -1.304 114 213 207
-0.409 -2.362 -1.042 114 213 207
-0.4 2.354 -1.055 114 213 207
-0.388 -2.444 -0.796 114 213 207
-0.414 2.441 -0.798 114 213 207
-0.405 -2.477 -0.52 114 213 207
-0.41 2.479 -0.53 114 213 207
-0.41 -2.507 -0.274 114 213 207
-0.398 2.508 -0.265 114 213 207
-0.396 -2.504 -0.007 114 213 207
-0.391 2.518 0.003 114 213 207
-0.396 -2.494 0.265 114 213 207
-0.408 2.483 0.264 114 213 207
-0.41 -2.442 0.537 114 213 207
-0.39 2.438 0.516 114 213 207
-0.396 -2.371 0.791 114 213 207
-0.405 2.376 0.799 114 213 207
-0.387 -2.271 1.059 114 213 207
-0.403 2.27 1.059 114 213 207
-0.403 -2.133 1.316 114 213 207
-0.413 2.126 1.317 114 213 207
-0.404 -1.962 1.579 114 213 207
-0.388 1.956 1.565 114 213 207
-0.389 -1.725 1.835 114 213 207
-0.389 1.732 1.834 114 213 207
-0.407 -1.422 2.112 114 213 207
-0.406 1.427 2.11 114 213 207
-0.001 -1.72 -2.102 114 213 207
-0.009 1.721 -2.105 114 213 207
-0.004 -1.944 -1.836 114 213 207
-0.009 1.936 -1.828 114 213 207
-0.011 -2.132 -1.576 114 213 207
-0.013 2.114 -1.579 114 213 207
-0.004 -2.27 -1.309 114 213 207
0.013 2.263 -1.314 114 213 207
0.006 -2.363 -1.041 114 213 207
0.007 2.359 -1.04 114 213 207
-0.009 -2.441 -0.784 114 213 207
0.003 2.439 -0.776 114 213 207
0.008 -2.497 -0.514 114 213 207
-0.01 2.497 -0.521 114 213 207
-0.001 -2.519 -0.26 114 213 207
-0.004 2.526 -0.27 114 213 207
-0.004 -2.514 0.008 114 213 207
0.008 2.52 -0.007 114 213 207
0.008 -2.488 0.263 114 213 207
0.009 2.503 0.265 114 213 207
0.005 -2.44 0.536 114 213 207
0.013 2.446 0.518 114 213 207
0 -2.367 0.776 114 213 207
-0.001 2.382 0.794 114 213 207
-0.01 -2.263 1.054 114 213 207
0 2.269 1.051 114 213 207
0.014 -2.142 1.303 114 213 207
-0.013 2.13 1.321 114 213 207
-0.005 -1.957 1.58 114 213 207
0.008 1.963 1.578 114 213 207
0.011 -1.738 1.827 114 213 207
-0.002 1.733 1.839 114 213 207
-0.009 -1.438 2.11 114 213 207
-0.005 1.438 2.101 114 213 207
0.413 -1.706 -2.09 114 213 207
0.401 1.71 -2.091 114 213 207
0.388 -1.947 -1.848 114 213 207
0.389 1.945 -1.833 114 213 207
0.398 -2.116 -1.587 114 213 207
0.388 2.123 -1.581 114 213 207
0.396 -2.261 -1.322 114 213 207
0.41 2.264 -1.318 114 213 207
0.409 -2.37 -1.042 114 213 207
0.396 2.36 -1.059 114 213 207
0.4 -2.439 -0.785 114 213 207
0.401 2.445 -0.782 227 108 53
0.41 -2.479 -0.516 114 213 207
0.408 -2.509 -0.267 114 213 207
0.41 -2.507 0 114 213 207
0.414 -2.492 0.27 114 213 207
0.396 -2.435 0.518 114 213 207
0.412 -2.375 0.797 114 213 207
0.409 -2.265 1.039 114 213 207
0.395 2.265 1.053 227 108 53
0.386 -2.123 1.304 114 213 207
0.389 2.129 1.307 114 213 207
0.402 -1.949 1.571 114 213 207
0.41 1.963 1.565 114 213 207
0.39 -1.742 1.832 114 213 207
0.408 1.735 1.835 114 213 207
0.403 -1.44 2.089 114 213 207
0.404 1.423 2.1 114 213 207
0.8 -1.705 -2.111 114 213 207
0.802 1.705 -2.099 114 213 207
0.801 -1.921 -1.849 114 213 207
0.793 1.926 -1.83 114 213 207
0.806 -2.099 -1.566 114 213 207
0.804 2.103 -1.573 114 213 207
0.808 -2.237 -1.322 114 213 207
0.79 2.244 -1.308 114 213 207
0.809 -2.339 -1.051 114 213 207
0.8 2.341 -1.059 114 213 207
0.797 -2.413 -0.788 114 213 207
0.794 2.42 -0.793 227 108 53
0.811 -2.469 -0.516 114 213 207
0.793 -2.499 -0.268 114 213 207
0.795 -2.503 0 114 213 207
0.802 -2.484 0.252 114 213 207
0.802 -2.43 0.515 114 213 207
0.794 -2.351 0.782 114 213 207
0.8 -2.256 1.059 114 213 207
0.801 2.245 1.062 227 108 53
0.808 -2.124 1.304 114 213 207
0.788 2.115 1.317 114 213 207
0.801 -1.952 1.575 114 213 207
0.806 1.953 1.571 114 213 207
0.791 -1.726 1.834 114 213 207
0.802 1.726 1.836 114 213 207
0.804 -1.424 2.108 114 213 207
0.807 1.426 2.103 114 213 207
1.186 -1.678 -2.107 114 213 207
1.201 1.689 -2.098 114 213 207
1.204 -1.906 -1.841 114 213 207
1.187 1.902 -1.828 114 213 207
1.204 -2.076 -1.587 114 213 207
1.201 2.091 -1.574 114 213 207
1.191 -2.226 -1.305 114 213 207
1.191 2.226 -1.304 114 213 207
1.199 -2.321 -1.044 114 213 207
1.211 2.33 -1.061 114 213 207
1.21 -2.405 -0.785 114 213 207
1.212 2.391 -0.779 227 108 53
1.198 -2.437 -0.516 114 213 207
1.205 -2.463 -0.259 114 213 207
1.188 -2.475 0.01 114 213 207
1.206 -2.446 0.259 114 213 207
1.199 -2.395 0.519 114 213 207
1.186 -2.324 0.783 114 213 207
1.21 -2.222 1.052 114 213 207
1.205 2.225 1.059 227 108 53
1.205 -2.094 1.303 114 213 207
1.197 2.101 1.321 114 213 207
1.203 -1.926 1.578 114 213 207
1.194 1.921 1.587 114 213 207
1.209 -1.709 1.843 114 213 207
1.196 1.699 1.839 114 213 207
1.206 -1.399 2.103 114 213 207
1.187 1.411 2.1 114 213 207
1.598 -1.656 -2.103 114 213 207
1.597 1.66 -2.11 114 213 207
1.586 -1.876 -1.838 114 213 207
1.608 1.872 -1.828 114 213 207
1.597 -2.054 -1.569 114 213 207
1.589 2.063 -1.571 114 213 207
1.611 -2.187 -1.317 114 213 207
1.608 2.185 -1.319 114 213 207
1.601 -2.289 -1.044 114 213 207
1.596 2.298 -1.042 114 213 207
1.593 -2.353 -0.788 114 213 207
1.591 2.367 -0.778 227 108 53
1.596 -2.415 -0.516 114 213 207
1.591 -2.434 -0.253 114 213 207
1.595 -2.431 -0.011 114 213 207
1.611 -2.406 0.259 114 213 207
1.59 -2.375 0.523 114 213 207
1.594 -2.288 0.796 114 213 207
1.602 -2.206 1.061 114 213 207
1.591 2.195 1.05 227 108 53
1.599 -2.072 1.311 114 213 207
1.594 2.072 1.311 114 213 207
1.603 -1.905 1.565 114 213 207
1.591 1.906 1.576 114 213 207
1.588 -1.688 1.836 114 213 207
1.607 1.677 1.827 114 213 207
1.593 -1.396 2.112 114 213 207
1.604 1.38 2.106 114 213 207
2.007 -1.622 -2.11 114 213 207
1.994 1.618 -2.103 114 213 207
1.992 -1.841 -1.838 114 213 207
2.013 1.852 -1.83 114 213 207
2.009 -2.023 -1.576 114 213 207
2.007 2.02 -1.563 114 213 207
1.994 -2.14 -1.314 114 213 207
2.006 2.14 -1.308 114 213 207
1.988 -2.246 -1.057 114 213 207
1.987 2.246 -1.051 114 213 207
1.995 -2.313 -0.781 114 213 207
1.987 2.317 -0.781 227 108 53
1.996 -2.357 -0.524 114 213 207
2.009 -2.39 -0.263 114 213 207
2.013 -2.381 0.012 114 213 207
2.008 -2.368 0.268 114 213 207
1.99 -2.33 0.536 114 213 207
1.988 -2.259 0.799 114 213 207
2.008 -2.163 1.041 114 213 207
2.013 2.149 1.038 227 108 53
1.988 -2.017 1.304 114 213 207
1.991 2.037 1.301 114 213 207
2.007 -1.862 1.568 114 213 207
1.988 1.859 1.578 114 213 207
1.987 -1.65 1.842 114 213 207
1.991 1.641 1.849 114 213 207
1.993 -1.352 2.109 114 213 207
1.998 1.364 2.09 114 213 207
2.392 -1.588 -2.111 114 213 207
2.393 1.577 -2.105 114 213 207
2.399 -1.793 -1.834 114 213 207
2.404 1.799 -1.848 114 213 207
2.391 -1.97 -1.572 114 213 207
2.412 1.96 -1.582 114 213 207
2.402 -2.087 -1.306 114 213 207
2.393 2.088 -1.302 114 213 207
2.399 -2.197 -1.058 114 213 207
2.41 2.182 -1.05 114 213 207
2.396 -2.266 -0.785 114 213 207
2.404 2.258 -0.776 227 108 53
2.41 -2.311 -0.515 114 213 207
2.387 -2.336 -0.274 114 213 207
2.405 -2.331 0.002 114 213 207
2.397 -2.31 0.265 114 213 207
2.387 -2.264 0.53 114 213 207
2.388 -2.191 0.782 114 213 207
2.39 -2.107 1.041 114 213 207
2.389 2.1 1.056 227 108 53
2.404 -1.968 1.321 114 213 207
2.389 1.973 1.322 114 213 207
2.387 -1.808 1.57 114 213 207
2.389 1.821 1.581 114 213 207
2.408 -1.601 1.842 114 213 207
2.402 1.601 1.844 114 213 207
2.398 -1.322 2.106 114 213 207
2.414 1.338 2.095 114 213 207
2.801 -1.536 -2.099 114 213 207
2.788 1.529 -2.089 114 213 207
2.797 -1.754 -1.84 114 213 207
2.797 1.74 -1.829 114 213 207
2.794 -1.906 -1.583 114 213 207
2.791 1.9 -1.578 114 213 207
2.809 -2.036 -1.311 114 213 207
2.813 2.028 -1.302 114 213 207
2.812 -2.133 -1.043 114 213 207
2.789 2.116 -1.049 114 213 207
2.799 -2.201 -0.796 114 213 207
2.803 2.189 -0.798 114 213 207
2.811 -2.228 -0.513 114 213 207
2.788 2.24 -0.515 114 213 207
2.795 -2.268 -0.273 114 213 207
2.813 2.265 -0.268 114 213 207
2.803 -2.265 0.001 114 213 207
2.795 2.268 0.004 114 213 207
2.811 -2.238 0.272 114 213 207
2.787 2.248 0.251 114 213 207
2.787 -2.202 0.521 114 213 207
2.797 2.202 0.536 114 213 207
2.788 -2.122 0.794 114 213 207
2.814 2.129 0.785 114 213 207
2.8 -2.042 1.052 114 213 207
2.804 2.03 1.062 114 213 207
2.809 -1.912 1.312 114 213 207
2.788 1.923 1.311 114 213 207
2.811 -1.754 1.574 114 213 207
2.803 1.755 1.576 114 213 207
2.802 -1.559 1.841 114 213 207
2.788 1.553 1.846 114 213 207
2.786 -1.29 2.11 114 213 207
2.792 1.293 2.101 114 213 207
3.202 -1.476 -2.1 114 213 207
3.198 1.488 -2.096 114 213 207
3.192 -1.689 -1.831 114 213 207
3.2 1.685 -1.835 114 213 207
3.193 -1.825 -1.582 114 213 207
3.199 1.841 -1.585 114 213 207
3.201 -1.95 -1.324 114 213 207
3.187 1.955 -1.305 114 213 207
3.19 -2.051 -1.043 114 213 207
3.195 2.048 -1.038 114 213 207
3.206 -2.103 -0.793 114 213 207
3.198 2.106 -0.789 114 213 207
3.212 -2.144 -0.521 114 213 207
3.193 2.161 -0.53 114 213 207
3.21 -2.175 -0.251 114 213 207
3.201 2.183 -0.274 114 213 207
3.213 -2.165 -0.012 114 213 207
3.193 2.175 0.001 114 213 207
3.21 -2.15 0.254 114 213 207
3.202 2.162 0.269 114 213 207
3.199 -2.11 0.515 114 213 207
3.197 2.109 0.52 114 213 207
3.19 -2.057 0.776 114 213 207
3.199 2.056 0.779 114 213 207
3.206 -1.971 1.039 114 213 207
3.208 1.953 1.05 114 213 207
3.212 -1.852 1.322 114 213 207
3.213 1.847 1.315 114 213 207
3.203 -1.691 1.575 114 213 207
3.188 1.696 1.582 114 213 207
3.203 -1.503 1.828 114 213 207
3.198 1.509 1.826 114 213 207
3.201 -1.247 2.111 114 213 207
3.194 1.239 2.093 114 213 207
3.61 -1.411 -2.096 114 213 207
3.598 1.409 -2.093 114 213 207
3.595 -1.606 -1.845 114 213 207
3.601 1.611 -1.832 114 213 207
3.608 -1.747 -1.576 114 213 207
3.586 1.746 -1.586 114 213 207
3.592 -1.864 -1.301 114 213 207
3.595 1.872 -1.309 114 213 207
3.613 -1.945 -1.048 114 213 207
3.614 1.94 -1.053 114 213 207
3.604 -2.013 -0.777 114 213 207
3.598 2.01 -0.796 114 213 207
3.607 -2.052 -0.522 114 213 207
3.592 2.056 -0.519 114 213 207
3.605 -2.064 -0.256 114 213 207
3.593 2.07 -0.266 114 213 207
3.598 -2.074 -0.006 114 213 207
3.613 2.068 -0.003 114 213 207
3.59 -2.051 0.252 114 213 207
3.588 2.057 0.258 114 213 207
3.61 -2.025 0.536 114 213 207
3.603 2.017 0.524 114 213 207
3.59 -1.957 0.789 114 213 207
3.593 1.955 0.791 114 213 207
3.603 -1.871 1.043 114 213 207
3.59 1.872 1.047 114 213 207
3.589 -1.761 1.323 114 213 207
3.602 1.765 1.324 114 213 207
3.594 -1.626 1.569 114 213 207
3.588 1.607 1.565 114 213 207
3.613 -1.424 1.838 114 213 207
3.598 1.439 1.837 114 213 207
3.595 -1.185 2.091 114 213 207
3.605 1.176 2.09 114 213 207
4.001 -1.338 -2.091 114 213 207
3.993 1.333 -2.091 114 213 207
4.005 -1.513 -1.841 114 213 207
4.014 1.517 -1.849 114 213 207
4.006 -1.652 -1.578 114 213 207
3.994 1.652 -1.585 114 213 207
4.012 -1.753 -1.316 114 213 207
4.014 1.763 -1.309 114 213 207
4.004 -1.839 -1.046 114 213 207
3.992 1.834 -1.061 114 213 207
4.002 -1.902 -0.794 114 213 207
3.988 1.904 -0.777 114 213 207
4.001 -1.937 -0.531 114 213 207
4.002 1.938 -0.536 114 213 207
4.013 -1.958 -0.268 114 213 207
3.99 1.954 -0.273 114 213 207
3.993 -1.956 0 114 213 207
4.006 1.965 0.01 114 213 207
4.009 -1.929 0.267 114 213 207
4.006 1.944 0.27 114 213 207
4.004 -1.893 0.516 114 213 207
4.005 1.901 0.536 114 213 207
3.991 -1.837 0.788 114 213 207
3.997 1.836 0.798 114 213 207
3.99 -1.764 1.046 114 213 207
3.992 1.762 1.039 114 213 207
3.986 -1.657 1.314 114 213 207
4.008 1.652 1.308 114 213 207
3.991 -1.514 1.566 114 213 207
3.992 1.526 1.567 114 213 207
3.989 -1.349 1.84 114 213 207
3.986 1.355 1.842 114 213 207
3.994 -1.12 2.111 114 213 207
4.013 1.123 2.105 114 213 207
4.405 -1.236 -2.094 114 213 207
4.391 1.231 -2.108 114 213 207
4.387 -1.407 -1.848 114 213 207
4.397 1.41 -1.834 114 213 207
4.398 -1.536 -1.586 114 213 207
4.396 1.53 -1.565 114 213 207
4.386 -1.629 -1.307 114 213 207
4.392 1.64 -1.303 114 213 207
4.386 -1.709 -1.051 114 213 207
4.413 1.708 -1.039 114 213 207
4.398 -1.757 -0.784 114 213 207
4.402 1.752 -0.79 114 213 207
4.405 -1.805 -0.522 114 213 207
4.402 1.796 -0.519 114 213 207
4.404 -1.805 -0.253 114 213 207
4.398 1.807 -0.273 114 213 207
4.399 -1.815 -0.003 114 213 207
4.39 1.81 0.008 114 213 207
4.391 -1.796 0.255 114 213 207
4.411 1.8 0.257 114 213 207
4.404 -1.764 0.535 114 213 207
4.413 1.771 0.53 114 213 207
4.386 -1.706 0.79 114 213 207
4.411 1.704 0.778 114 213 207
4.398 -1.643 1.049 114 213 207
4.4 1.637 1.059 114 213 207
4.412 -1.532 1.309 114 213 207
4.397 1.539 1.317 114 213 207
4.399 -1.42 1.574 114 213 207
4.396 1.412 1.569 114 213 207
4.409 -1.252 1.84 114 213 207
4.41 1.254 1.831 114 213 207
4.405 -1.041 2.098 114 213 207
4.393 1.039 2.099 114 213 207
4.808 -1.125 -2.088 114 213 207
4.807 1.116 -2.112 114 213 207
4.796 -1.266 -1.844 114 213 207
4.81 1.276 -1.831 114 213 207
4.806 -1.39 -1.566 114 213 207
4.788 1.388 -1.569 114 213 207
4.807 -1.489 -1.305 114 213 207
4.793 1.478 -1.323 114 213 207
4.794 -1.551 -1.05 114 213 207
4.811 1.541 -1.06 114 213 207
4.788 -1.607 -0.797 114 213 207
4.799 1.593 -0.789 114 213 207
4.787 -1.639 -0.524 114 213 207
4.786 1.626 -0.525 114 213 207
4.814 -1.654 -0.264 114 213 207
4.8 1.656 -0.251 114 213 207
4.81 -1.654 0.001 114 213 207
4.81 1.654 -0.009 114 213 207
4.804 -1.637 0.263 114 213 207
4.808 1.63 0.274 114 213 207
4.802 -1.603 0.521 114 213 207
4.814 1.594 0.526 114 213 207
4.789 -1.553 0.778 114 213 207
4.806 1.556 0.777 114 213 207
4.793 -1.481 1.06 114 213 207
4.798 1.488 1.048 114 213 207
4.809 -1.393 1.305 114 213 207
4.803 1.391 1.319 114 213 207
4.804 -1.292 1.567 114 213 207
4.805 1.285 1.572 114 213 207
4.786 -1.131 1.828 114 213 207
4.792 1.143 1.833 114 213 207
4.786 -0.946 2.091 114 213 207
4.794 0.94 2.096 114 213 207
5.201 -0.978 -2.096 114 213 207
5.205 0.986 -2.102 114 213 207
5.211 -1.117 -1.832 114 213 207
5.21 1.12 -1.843 114 213 207
5.21 -1.225 -1.571 114 213 207
5.206 1.226 -1.576 114 213 207
5.187 -1.289 -1.311 114 213 207
5.212 1.308 -1.319 114 213 207
5.209 -1.354 -1.043 114 213 207
5.207 1.365 -1.042 114 213 207
5.192 -1.4 -0.792 114 213 207
5.192 1.411 -0.786 114 213 207
5.188 -1.425 -0.519 114 213 207
5.197 1.426 -0.521 114 213 207
5.187 -1.447 -0.269 114 213 207
5.204 1.443 -0.27 114 213 207
5.189 -1.452 0.003 114 213 207
5.206 1.436 0 114 213 207
5.192 -1.422 0.259 114 213 207
5.2 1.433 0.253 114 213 207
5.194 -1.403 0.525 114 213 207
5.212 1.402 0.515 114 213 207
5.213 -1.355 0.784 114 213 207
5.206 1.361 0.776 114 213 207
5.209 -1.303 1.046 114 213 207
5.191 1.307 1.052 114 213 207
5.193 -1.229 1.312 114 213 207
5.212 1.235 1.316 114 213 207
5.213 -1.124 1.574 114 213 207
5.192 1.126 1.586 114 213 207
5.199 -1 1.842 114 213 207
5.213 0.986 1.826 114 213 207
5.194 -0.828 2.098 114 213 207
5.212 0.817 2.111 114 213 207
5.601 -0.814 -2.107 114 213 207
5.587 0.8 -2.088 114 213 207
5.603 -0.913 -1.844 114 213 207
5.588 0.913 -1.838 114 213 207
5.612 -0.991 -1.564 114 213 207
5.612 1.009 -1.572 114 213 207
5.599 -1.063 -1.323 114 213 207
5.588 1.071 -1.315 114 213 207
5.593 -1.124 -1.053 114 213 207
5.596 1.119 -1.046 114 213 207
5.606 -1.152 -0.799 114 213 207
5.589 1.154 -0.782 114 213 207
5.588 -1.182 -0.517 114 213 207
5.606 1.184 -0.518 114 213 207
5.6 -1.185 -0.265 114 213 207
5.604 1.186 -0.264 114 213 207
5.6 -1.196 -0.004 114 213 207
5.603 1.187 -0.01 114 213 207
5.61 -1.181 0.26 114 213 207
5.607 1.174 0.268 114 213 207
5.604 -1.149 0.524 114 213 207
5.587 1.146 0.528 114 213 207
5.609 -1.111 0.797 114 213 207
5.596 1.111 0.776 114 213 207
5.599 -1.067 1.059 114 213 207
5.611 1.075 1.06 114 213 207
5.606 -0.999 1.315 114 213 207
5.598 1.008 1.308 114 213 207
5.592 -0.926 1.567 114 213 207
5.592 0.919 1.567 114 213 207
5.595 -0.818 1.849 114 213 207
5.6 0.814 1.843 114 213 207
5.595 -0.67 2.105 114 213 207
5.607 0.669 2.097 114 213 207
6.002 -0.563 -2.096 114 213 207
5.992 0.561 -2.104 114 213 207
6.009 -0.636 -1.829 114 213 207
5.993 0.638 -1.828 114 213 207
5.993 -0.7 -1.58 114 213 207
5.987 0.703 -1.567 114 213 207
6.01 -0.734 -1.302 114 213 207
5.996 0.742 -1.313 114 213 207
5.989 -0.782 -1.046 114 213 207
5.994 0.78 -1.054 114 213 207
5.989 -0.808 -0.787 114 213 207
5.987 0.79 -0.792 114 213 207
5.986 -0.819 -0.533 114 213 207
6.005 0.808 -0.516 114 213 207
6.012 -0.821 -0.266 114 213 207
6.008 0.821 -0.252 114 213 207
6.004 -0.826 0.008 114 213 207
6.003 0.817 0.006 114 213 207
6.003 -0.807 0.27 114 213 207
5.997 0.811 0.273 114 213 207
5.998 -0.803 0.516 114 213 207
5.997 0.796 0.515 114 213 207
5.999 -0.769 0.795 114 213 207
5.991 0.769 0.793 114 213 207
5.989 -0.747 1.043 114 213 207
6.01 0.739 1.04 114 213 207
5.987 -0.709 1.301 114 213 207
5.995 0.694 1.303 114 213 207
6.011 -0.643 1.567 114 213 207
5.997 0.643 1.568 114 213 207
6.008 -0.567 1.836 114 213 207
6.013 0.575 1.833 114 213 207
6.003 -0.469 2.089 114 213 207
6.01 0.476 2.092 114 213 207
